<svg width="178" height="50" viewBox="0 0 178 50" fill="none" xmlns="http://www.w3.org/2000/svg">
<rect x="0.5" y="0.5" width="177" height="49" rx="7.5" fill="#09090B"/>
<rect x="0.5" y="0.5" width="177" height="49" rx="7.5" stroke="#A1A1AA"/>
<g clip-path="url(#clip0_2154_721)">
<path d="M14.817 9L30.8123 25L14.8186 41C14.5342 40.8804 14.2915 40.6794 14.121 40.4223C13.9505 40.1652 13.8598 39.8634 13.8604 39.5549V10.4467C13.8602 10.1383 13.9508 9.83662 14.121 9.57935C14.2911 9.32209 14.5332 9.12059 14.817 9ZM31.9229 26.1105L35.5388 29.7265L18.3591 39.6743L31.9229 26.1105ZM36.9478 21.0872L41.357 23.6413C41.595 23.7794 41.7926 23.9775 41.9299 24.216C42.0673 24.4545 42.1396 24.7248 42.1396 25C42.1396 25.2752 42.0673 25.5455 41.9299 25.784C41.7926 26.0225 41.595 26.2206 41.357 26.3587L36.9462 28.9128L33.0334 25L36.9478 21.0872ZM18.3591 10.3257L35.5404 20.2719L31.9229 23.8895L18.3591 10.3257Z" fill="#F4F4F5"/>
</g>
<path d="M55.7841 18H52.9588V9.27273H55.8736C56.7287 9.27273 57.4631 9.44744 58.0767 9.79688C58.6903 10.1435 59.1605 10.642 59.4872 11.2926C59.8168 11.9403 59.9815 12.7173 59.9815 13.6236C59.9815 14.5327 59.8153 15.3139 59.483 15.9673C59.1534 16.6207 58.6761 17.1236 58.0511 17.4759C57.4261 17.8253 56.6705 18 55.7841 18ZM54.2756 16.8494H55.7116C56.3764 16.8494 56.929 16.7244 57.3693 16.4744C57.8097 16.2216 58.1392 15.8565 58.358 15.3793C58.5767 14.8991 58.6861 14.3139 58.6861 13.6236C58.6861 12.9389 58.5767 12.358 58.358 11.8807C58.142 11.4034 57.8196 11.0412 57.3906 10.794C56.9616 10.5469 56.429 10.4233 55.7926 10.4233H54.2756V16.8494ZM61.5167 18V11.4545H62.7908V18H61.5167ZM62.1602 10.4446C61.9386 10.4446 61.7482 10.3707 61.5891 10.223C61.4329 10.0724 61.3548 9.89347 61.3548 9.68608C61.3548 9.47585 61.4329 9.29687 61.5891 9.14915C61.7482 8.99858 61.9386 8.9233 62.1602 8.9233C62.3817 8.9233 62.5707 8.99858 62.7269 9.14915C62.886 9.29687 62.9656 9.47585 62.9656 9.68608C62.9656 9.89347 62.886 10.0724 62.7269 10.223C62.5707 10.3707 62.3817 10.4446 62.1602 10.4446ZM69.4098 13.0526L68.255 13.2571C68.2067 13.1094 68.13 12.9687 68.0249 12.8352C67.9226 12.7017 67.7834 12.5923 67.6072 12.5071C67.4311 12.4219 67.2109 12.3793 66.9467 12.3793C66.5859 12.3793 66.2848 12.4602 66.0433 12.6222C65.8018 12.7812 65.6811 12.9872 65.6811 13.2401C65.6811 13.4588 65.7621 13.6349 65.924 13.7685C66.0859 13.902 66.3473 14.0114 66.7081 14.0966L67.7479 14.3352C68.3501 14.4744 68.799 14.6889 69.0945 14.9787C69.3899 15.2685 69.5376 15.6449 69.5376 16.108C69.5376 16.5 69.424 16.8494 69.1967 17.1562C68.9723 17.4602 68.6584 17.6989 68.255 17.8722C67.8544 18.0455 67.3899 18.1321 66.8615 18.1321C66.1286 18.1321 65.5305 17.9759 65.0675 17.6634C64.6044 17.348 64.3203 16.9006 64.2152 16.321L65.4467 16.1335C65.5234 16.4545 65.6811 16.6974 65.9197 16.8622C66.1584 17.0241 66.4695 17.1051 66.853 17.1051C67.2706 17.1051 67.6044 17.0185 67.8544 16.8452C68.1044 16.669 68.2294 16.4545 68.2294 16.2017C68.2294 15.9972 68.1527 15.8253 67.9993 15.6861C67.8487 15.5469 67.6172 15.4418 67.3047 15.3707L66.1967 15.1278C65.5859 14.9886 65.1342 14.767 64.8416 14.4631C64.5518 14.1591 64.407 13.7741 64.407 13.3082C64.407 12.9219 64.5149 12.5838 64.7308 12.294C64.9467 12.0043 65.245 11.7784 65.6257 11.6165C66.0064 11.4517 66.4425 11.3693 66.9339 11.3693C67.6413 11.3693 68.1982 11.5227 68.6044 11.8295C69.0107 12.1335 69.2791 12.5412 69.4098 13.0526ZM70.9386 20.4545V11.4545H72.1829V12.5156H72.2894C72.3633 12.3793 72.4698 12.2216 72.609 12.0426C72.7482 11.8636 72.9414 11.7074 73.1886 11.5739C73.4357 11.4375 73.7624 11.3693 74.1687 11.3693C74.6971 11.3693 75.1687 11.5028 75.5835 11.7699C75.9982 12.0369 76.3235 12.4219 76.5593 12.9247C76.7979 13.4276 76.9173 14.0327 76.9173 14.7401C76.9173 15.4474 76.7994 16.054 76.5636 16.5597C76.3278 17.0625 76.0039 17.4503 75.592 17.723C75.18 17.9929 74.7099 18.1278 74.1815 18.1278C73.7837 18.1278 73.4585 18.0611 73.2056 17.9276C72.9556 17.794 72.7596 17.6378 72.6175 17.4588C72.4755 17.2798 72.3661 17.1207 72.2894 16.9815H72.2127V20.4545H70.9386ZM72.1871 14.7273C72.1871 15.1875 72.2539 15.5909 72.3874 15.9375C72.521 16.2841 72.7141 16.5554 72.967 16.7514C73.2198 16.9446 73.5295 17.0412 73.896 17.0412C74.2766 17.0412 74.5948 16.9403 74.8505 16.7386C75.1062 16.5341 75.2994 16.2571 75.43 15.9077C75.5636 15.5582 75.6303 15.1648 75.6303 14.7273C75.6303 14.2955 75.565 13.9077 75.4343 13.5639C75.3065 13.2202 75.1133 12.9489 74.8548 12.75C74.5991 12.5511 74.2795 12.4517 73.896 12.4517C73.5266 12.4517 73.2141 12.5469 72.9585 12.7372C72.7056 12.9276 72.5138 13.1932 72.3832 13.5341C72.2525 13.875 72.1871 14.2727 72.1871 14.7273ZM81.1019 18.1321C80.4883 18.1321 79.9528 17.9915 79.4954 17.7102C79.038 17.429 78.6829 17.0355 78.43 16.5298C78.1772 16.0241 78.0508 15.4332 78.0508 14.7571C78.0508 14.0781 78.1772 13.4844 78.43 12.9759C78.6829 12.4673 79.038 12.0724 79.4954 11.7912C79.9528 11.5099 80.4883 11.3693 81.1019 11.3693C81.7156 11.3693 82.2511 11.5099 82.7085 11.7912C83.1658 12.0724 83.521 12.4673 83.7738 12.9759C84.0266 13.4844 84.1531 14.0781 84.1531 14.7571C84.1531 15.4332 84.0266 16.0241 83.7738 16.5298C83.521 17.0355 83.1658 17.429 82.7085 17.7102C82.2511 17.9915 81.7156 18.1321 81.1019 18.1321ZM81.1062 17.0625C81.5039 17.0625 81.8335 16.9574 82.0948 16.7472C82.3562 16.5369 82.5494 16.2571 82.6744 15.9077C82.8022 15.5582 82.8661 15.1733 82.8661 14.7528C82.8661 14.3352 82.8022 13.9517 82.6744 13.6023C82.5494 13.25 82.3562 12.9673 82.0948 12.7543C81.8335 12.5412 81.5039 12.4347 81.1062 12.4347C80.7056 12.4347 80.3732 12.5412 80.109 12.7543C79.8477 12.9673 79.6531 13.25 79.5252 13.6023C79.4002 13.9517 79.3377 14.3352 79.3377 14.7528C79.3377 15.1733 79.4002 15.5582 79.5252 15.9077C79.6531 16.2571 79.8477 16.5369 80.109 16.7472C80.3732 16.9574 80.7056 17.0625 81.1062 17.0625ZM86.8494 14.1136V18H85.5753V11.4545H86.7983V12.5199H86.8793C87.0298 12.1733 87.2656 11.8949 87.5866 11.6847C87.9105 11.4744 88.3182 11.3693 88.8097 11.3693C89.2557 11.3693 89.6463 11.4631 89.9815 11.6506C90.3168 11.8352 90.5767 12.1108 90.7614 12.4773C90.946 12.8437 91.0384 13.2969 91.0384 13.8366V18H89.7642V13.9901C89.7642 13.5156 89.6406 13.1449 89.3935 12.8778C89.1463 12.608 88.8068 12.473 88.375 12.473C88.0795 12.473 87.8168 12.5369 87.5866 12.6648C87.3594 12.7926 87.179 12.9801 87.0455 13.2273C86.9148 13.4716 86.8494 13.767 86.8494 14.1136ZM92.7472 18V11.4545H94.0213V18H92.7472ZM92.8665 10.581L93.8636 8.61648H95.206L93.8849 10.581H92.8665ZM101.335 11.4545L98.9613 18H97.5977L95.2198 11.4545H96.5877L98.2454 16.4915H98.3136L99.967 11.4545H101.335ZM105.131 18.1321C104.486 18.1321 103.93 17.9943 103.464 17.7188C103.001 17.4403 102.643 17.0497 102.391 16.5469C102.141 16.0412 102.016 15.4489 102.016 14.7699C102.016 14.0994 102.141 13.5085 102.391 12.9972C102.643 12.4858 102.996 12.0866 103.447 11.7997C103.902 11.5128 104.433 11.3693 105.041 11.3693C105.411 11.3693 105.768 11.4304 106.115 11.5526C106.462 11.6747 106.773 11.8665 107.048 12.1278C107.324 12.3892 107.541 12.7287 107.7 13.1463C107.859 13.5611 107.939 14.0653 107.939 14.6591V15.1108H102.736V14.1562H106.69C106.69 13.821 106.622 13.5241 106.486 13.2656C106.349 13.0043 106.158 12.7983 105.911 12.6477C105.666 12.4972 105.379 12.4219 105.05 12.4219C104.692 12.4219 104.379 12.5099 104.112 12.6861C103.848 12.8594 103.643 13.0866 103.499 13.3679C103.357 13.6463 103.286 13.9489 103.286 14.2756V15.0213C103.286 15.4588 103.362 15.831 103.516 16.1378C103.672 16.4446 103.889 16.679 104.168 16.8409C104.446 17 104.771 17.0795 105.143 17.0795C105.385 17.0795 105.605 17.0455 105.804 16.9773C106.003 16.9062 106.175 16.8011 106.32 16.6619C106.464 16.5227 106.575 16.3509 106.652 16.1463L107.858 16.3636C107.761 16.7187 107.588 17.0298 107.338 17.2969C107.091 17.5611 106.78 17.767 106.405 17.9148C106.033 18.0597 105.608 18.1321 105.131 18.1321ZM110.627 9.27273V18H109.353V9.27273H110.627ZM116.791 14.1136V18H115.517V11.4545H116.74V12.5199H116.821C116.971 12.1733 117.207 11.8949 117.528 11.6847C117.852 11.4744 118.26 11.3693 118.751 11.3693C119.197 11.3693 119.588 11.4631 119.923 11.6506C120.258 11.8352 120.518 12.1108 120.703 12.4773C120.887 12.8437 120.98 13.2969 120.98 13.8366V18H119.706V13.9901C119.706 13.5156 119.582 13.1449 119.335 12.8778C119.088 12.608 118.748 12.473 118.316 12.473C118.021 12.473 117.758 12.5369 117.528 12.6648C117.301 12.7926 117.12 12.9801 116.987 13.2273C116.856 13.4716 116.791 13.767 116.791 14.1136ZM125.446 18.1321C124.832 18.1321 124.297 17.9915 123.839 17.7102C123.382 17.429 123.027 17.0355 122.774 16.5298C122.521 16.0241 122.395 15.4332 122.395 14.7571C122.395 14.0781 122.521 13.4844 122.774 12.9759C123.027 12.4673 123.382 12.0724 123.839 11.7912C124.297 11.5099 124.832 11.3693 125.446 11.3693C126.059 11.3693 126.595 11.5099 127.052 11.7912C127.51 12.0724 127.865 12.4673 128.118 12.9759C128.37 13.4844 128.497 14.0781 128.497 14.7571C128.497 15.4332 128.37 16.0241 128.118 16.5298C127.865 17.0355 127.51 17.429 127.052 17.7102C126.595 17.9915 126.059 18.1321 125.446 18.1321ZM125.45 17.0625C125.848 17.0625 126.177 16.9574 126.439 16.7472C126.7 16.5369 126.893 16.2571 127.018 15.9077C127.146 15.5582 127.21 15.1733 127.21 14.7528C127.21 14.3352 127.146 13.9517 127.018 13.6023C126.893 13.25 126.7 12.9673 126.439 12.7543C126.177 12.5412 125.848 12.4347 125.45 12.4347C125.049 12.4347 124.717 12.5412 124.453 12.7543C124.191 12.9673 123.997 13.25 123.869 13.6023C123.744 13.9517 123.681 14.3352 123.681 14.7528C123.681 15.1733 123.744 15.5582 123.869 15.9077C123.997 16.2571 124.191 16.5369 124.453 16.7472C124.717 16.9574 125.049 17.0625 125.45 17.0625Z" fill="#A1A1AA"/>
<path d="M63.4418 29.0497C63.3045 28.6188 63.1198 28.233 62.8878 27.892C62.6605 27.5464 62.3883 27.2528 62.071 27.0114C61.7538 26.7652 61.3916 26.5781 60.9844 26.4503C60.5819 26.3224 60.1392 26.2585 59.6562 26.2585C58.8371 26.2585 58.0985 26.4692 57.4403 26.8906C56.7822 27.312 56.2614 27.9299 55.8778 28.7443C55.4991 29.554 55.3097 30.5459 55.3097 31.7202C55.3097 32.8991 55.5014 33.8958 55.8849 34.7102C56.2685 35.5246 56.794 36.1425 57.4616 36.5639C58.1293 36.9853 58.8892 37.196 59.7415 37.196C60.5322 37.196 61.2211 37.035 61.8082 36.7131C62.4001 36.3911 62.857 35.9366 63.179 35.3494C63.5057 34.7576 63.669 34.0616 63.669 33.2614L64.2372 33.3679H60.0753V31.5568H65.7926V33.2116C65.7926 34.4332 65.5322 35.4938 65.0114 36.3935C64.4953 37.2884 63.7803 37.9796 62.8665 38.4673C61.9574 38.955 60.9157 39.1989 59.7415 39.1989C58.4252 39.1989 57.2699 38.8958 56.2756 38.2898C55.286 37.6837 54.5142 36.8243 53.9602 35.7116C53.4063 34.5942 53.1293 33.2685 53.1293 31.7344C53.1293 30.5743 53.2902 29.5327 53.6122 28.6094C53.9342 27.6861 54.3864 26.9025 54.9688 26.2585C55.5559 25.6098 56.2448 25.1151 57.0355 24.7741C57.831 24.4285 58.6998 24.2557 59.642 24.2557C60.428 24.2557 61.1596 24.3717 61.8366 24.6037C62.5185 24.8357 63.1245 25.1648 63.6548 25.5909C64.1899 26.017 64.6326 26.5237 64.983 27.1108C65.3333 27.6932 65.5701 28.3395 65.6932 29.0497H63.4418ZM73.0032 39.2202C71.9805 39.2202 71.0879 38.9858 70.3256 38.517C69.5633 38.0483 68.9715 37.3925 68.5501 36.5497C68.1287 35.7069 67.918 34.7221 67.918 33.5952C67.918 32.4635 68.1287 31.474 68.5501 30.6264C68.9715 29.7789 69.5633 29.1207 70.3256 28.652C71.0879 28.1832 71.9805 27.9489 73.0032 27.9489C74.0259 27.9489 74.9184 28.1832 75.6808 28.652C76.4431 29.1207 77.0349 29.7789 77.4563 30.6264C77.8777 31.474 78.0884 32.4635 78.0884 33.5952C78.0884 34.7221 77.8777 35.7069 77.4563 36.5497C77.0349 37.3925 76.4431 38.0483 75.6808 38.517C74.9184 38.9858 74.0259 39.2202 73.0032 39.2202ZM73.0103 37.4375C73.6732 37.4375 74.2224 37.2623 74.658 36.9119C75.0936 36.5616 75.4156 36.0952 75.6239 35.5128C75.837 34.9304 75.9435 34.2888 75.9435 33.5881C75.9435 32.892 75.837 32.2528 75.6239 31.6705C75.4156 31.0833 75.0936 30.6122 74.658 30.2571C74.2224 29.902 73.6732 29.7244 73.0103 29.7244C72.3427 29.7244 71.7887 29.902 71.3484 30.2571C70.9128 30.6122 70.5884 31.0833 70.3754 31.6705C70.167 32.2528 70.0629 32.892 70.0629 33.5881C70.0629 34.2888 70.167 34.9304 70.3754 35.5128C70.5884 36.0952 70.9128 36.5616 71.3484 36.9119C71.7887 37.2623 72.3427 37.4375 73.0103 37.4375ZM85.054 39.2202C84.0313 39.2202 83.1387 38.9858 82.3764 38.517C81.6141 38.0483 81.0223 37.3925 80.6009 36.5497C80.1795 35.7069 79.9688 34.7221 79.9688 33.5952C79.9688 32.4635 80.1795 31.474 80.6009 30.6264C81.0223 29.7789 81.6141 29.1207 82.3764 28.652C83.1387 28.1832 84.0313 27.9489 85.054 27.9489C86.0767 27.9489 86.9692 28.1832 87.7315 28.652C88.4938 29.1207 89.0857 29.7789 89.5071 30.6264C89.9285 31.474 90.1392 32.4635 90.1392 33.5952C90.1392 34.7221 89.9285 35.7069 89.5071 36.5497C89.0857 37.3925 88.4938 38.0483 87.7315 38.517C86.9692 38.9858 86.0767 39.2202 85.054 39.2202ZM85.0611 37.4375C85.724 37.4375 86.2732 37.2623 86.7088 36.9119C87.1444 36.5616 87.4664 36.0952 87.6747 35.5128C87.8878 34.9304 87.9943 34.2888 87.9943 33.5881C87.9943 32.892 87.8878 32.2528 87.6747 31.6705C87.4664 31.0833 87.1444 30.6122 86.7088 30.2571C86.2732 29.902 85.724 29.7244 85.0611 29.7244C84.3935 29.7244 83.8395 29.902 83.3991 30.2571C82.9635 30.6122 82.6392 31.0833 82.4261 31.6705C82.2178 32.2528 82.1136 32.892 82.1136 33.5881C82.1136 34.2888 82.2178 34.9304 82.4261 35.5128C82.6392 36.0952 82.9635 36.5616 83.3991 36.9119C83.8395 37.2623 84.3935 37.4375 85.0611 37.4375ZM97.0835 43.3182C96.217 43.3182 95.4712 43.2045 94.8462 42.9773C94.226 42.75 93.7193 42.4493 93.3263 42.0753C92.9334 41.7012 92.6398 41.2917 92.4457 40.8466L94.271 40.0938C94.3988 40.3021 94.5692 40.5223 94.7823 40.7543C95.0001 40.991 95.2937 41.1922 95.663 41.358C96.0371 41.5237 96.5176 41.6065 97.1048 41.6065C97.9097 41.6065 98.5749 41.41 99.1005 41.017C99.6261 40.6288 99.8888 40.0085 99.8888 39.1562V37.0114H99.7539C99.6261 37.2434 99.4414 37.5014 99.1999 37.7855C98.9632 38.0696 98.6365 38.3158 98.2198 38.5241C97.8031 38.7325 97.261 38.8366 96.5934 38.8366C95.7317 38.8366 94.9551 38.6354 94.2638 38.233C93.5773 37.8258 93.0328 37.2268 92.6303 36.4361C92.2326 35.6406 92.0337 34.6629 92.0337 33.5028C92.0337 32.3428 92.2302 31.3485 92.6232 30.5199C93.021 29.6913 93.5655 29.0568 94.2567 28.6165C94.948 28.1714 95.7317 27.9489 96.6076 27.9489C97.2847 27.9489 97.8316 28.0625 98.2482 28.2898C98.6649 28.5123 98.9892 28.7727 99.2212 29.071C99.458 29.3693 99.6403 29.6321 99.7681 29.8594H99.9244V28.0909H102.005V39.2415C102.005 40.179 101.788 40.9484 101.352 41.5497C100.916 42.151 100.327 42.5961 99.5835 42.8849C98.8448 43.1738 98.0115 43.3182 97.0835 43.3182ZM97.0621 37.0753C97.6729 37.0753 98.189 36.9332 98.6104 36.6491C99.0366 36.3603 99.3585 35.9484 99.5763 35.4134C99.7989 34.8736 99.9102 34.2273 99.9102 33.4744C99.9102 32.7405 99.8013 32.0942 99.5835 31.5355C99.3656 30.9768 99.046 30.5412 98.6246 30.2287C98.2032 29.9115 97.6824 29.7528 97.0621 29.7528C96.4229 29.7528 95.8903 29.9186 95.4641 30.25C95.038 30.5767 94.716 31.0218 94.4982 31.5852C94.2852 32.1487 94.1786 32.7784 94.1786 33.4744C94.1786 34.1894 94.2875 34.8168 94.5053 35.3565C94.7231 35.8963 95.0451 36.3177 95.4712 36.6207C95.9021 36.9238 96.4324 37.0753 97.0621 37.0753ZM106.977 24.4545V39H104.853V24.4545H106.977ZM114.536 39.2202C113.461 39.2202 112.535 38.9905 111.759 38.5312C110.987 38.0672 110.39 37.4162 109.969 36.5781C109.552 35.7353 109.344 34.7481 109.344 33.6165C109.344 32.4991 109.552 31.5142 109.969 30.6619C110.39 29.8097 110.977 29.1444 111.73 28.6662C112.488 28.188 113.373 27.9489 114.386 27.9489C115.002 27.9489 115.598 28.0507 116.176 28.2543C116.754 28.4579 117.272 28.7775 117.732 29.2131C118.191 29.6487 118.553 30.2145 118.818 30.9105C119.083 31.6018 119.216 32.4422 119.216 33.4318V34.1847H110.544V32.5938H117.135C117.135 32.035 117.021 31.5402 116.794 31.1094C116.567 30.6738 116.247 30.3305 115.835 30.0795C115.428 29.8286 114.95 29.7031 114.401 29.7031C113.804 29.7031 113.283 29.8499 112.838 30.1435C112.398 30.4323 112.057 30.8111 111.815 31.2798C111.579 31.7438 111.46 32.2481 111.46 32.7926V34.0355C111.46 34.7647 111.588 35.3849 111.844 35.8963C112.104 36.4077 112.466 36.7983 112.93 37.0682C113.394 37.3333 113.937 37.4659 114.557 37.4659C114.959 37.4659 115.326 37.4091 115.658 37.2955C115.989 37.1771 116.276 37.0019 116.517 36.7699C116.759 36.5379 116.943 36.2514 117.071 35.9105L119.081 36.2727C118.92 36.8646 118.631 37.383 118.214 37.8281C117.803 38.2685 117.284 38.6117 116.659 38.858C116.039 39.0994 115.331 39.2202 114.536 39.2202ZM127.036 39V24.4545H132.22C133.352 24.4545 134.289 24.6605 135.033 25.0724C135.776 25.4844 136.332 26.0478 136.702 26.7628C137.071 27.473 137.256 28.2732 137.256 29.1634C137.256 30.0582 137.069 30.8632 136.695 31.5781C136.325 32.2884 135.767 32.8518 135.018 33.2685C134.275 33.6804 133.34 33.8864 132.213 33.8864H128.648V32.0256H132.014C132.729 32.0256 133.309 31.9025 133.754 31.6562C134.199 31.4053 134.526 31.0644 134.734 30.6335C134.943 30.2027 135.047 29.7126 135.047 29.1634C135.047 28.6141 134.943 28.1264 134.734 27.7003C134.526 27.2741 134.197 26.9403 133.747 26.6989C133.302 26.4574 132.715 26.3366 131.986 26.3366H129.23V39H127.036ZM141.782 24.4545V39H139.658V24.4545H141.782ZM147.813 39.2415C147.122 39.2415 146.497 39.1136 145.938 38.858C145.379 38.5975 144.937 38.2211 144.61 37.7287C144.288 37.2363 144.127 36.6326 144.127 35.9176C144.127 35.3021 144.246 34.7955 144.482 34.3977C144.719 34 145.039 33.6851 145.441 33.4531C145.844 33.2211 146.293 33.0459 146.79 32.9276C147.288 32.8092 147.794 32.7192 148.31 32.6577C148.964 32.5819 149.494 32.5204 149.901 32.473C150.308 32.4209 150.604 32.3381 150.789 32.2244C150.974 32.1108 151.066 31.9261 151.066 31.6705V31.6207C151.066 31.0005 150.891 30.5199 150.54 30.179C150.195 29.8381 149.679 29.6676 148.992 29.6676C148.277 29.6676 147.714 29.8262 147.302 30.1435C146.895 30.456 146.613 30.804 146.457 31.1875L144.461 30.733C144.698 30.0701 145.043 29.535 145.498 29.1278C145.957 28.7159 146.485 28.4176 147.082 28.233C147.678 28.0436 148.306 27.9489 148.964 27.9489C149.399 27.9489 149.861 28.0009 150.349 28.1051C150.841 28.2045 151.3 28.3892 151.727 28.6591C152.157 28.929 152.51 29.3149 152.785 29.8168C153.059 30.3139 153.197 30.9602 153.197 31.7557V39H151.123V37.5085H151.038C150.9 37.7831 150.694 38.053 150.42 38.3182C150.145 38.5833 149.792 38.8035 149.362 38.9787C148.931 39.1539 148.415 39.2415 147.813 39.2415ZM148.275 37.5369C148.862 37.5369 149.364 37.4209 149.781 37.1889C150.202 36.9569 150.522 36.6539 150.739 36.2798C150.962 35.901 151.073 35.4962 151.073 35.0653V33.6591C150.997 33.7348 150.851 33.8059 150.633 33.8722C150.42 33.9337 150.176 33.9882 149.901 34.0355C149.627 34.0781 149.359 34.1184 149.099 34.1562C148.838 34.1894 148.621 34.2178 148.445 34.2415C148.033 34.2936 147.657 34.3812 147.316 34.5043C146.98 34.6274 146.71 34.8049 146.506 35.0369C146.308 35.2642 146.208 35.5672 146.208 35.946C146.208 36.4716 146.402 36.8693 146.79 37.1392C147.179 37.4044 147.674 37.5369 148.275 37.5369ZM156.977 43.0909C156.66 43.0909 156.371 43.0649 156.11 43.0128C155.85 42.9654 155.656 42.9134 155.528 42.8565L156.039 41.1165C156.428 41.2206 156.773 41.2656 157.076 41.2514C157.379 41.2372 157.647 41.1236 157.879 40.9105C158.116 40.6974 158.324 40.3494 158.504 39.8665L158.767 39.142L154.775 28.0909H157.048L159.811 36.5568H159.924L162.687 28.0909H164.967L160.471 40.456C160.263 41.0241 159.998 41.5047 159.676 41.8977C159.354 42.2955 158.97 42.5938 158.525 42.7926C158.08 42.9915 157.564 43.0909 156.977 43.0909Z" fill="#F4F4F5"/>
<defs>
<clipPath id="clip0_2154_721">
<rect width="32" height="32" fill="white" transform="translate(12 9)"/>
</clipPath>
</defs>
</svg>
